<?xml version="1.0" encoding="UTF-8" standalone="no"?>
<svg
   xmlns:dc="http://purl.org/dc/elements/1.1/"
   xmlns:cc="http://creativecommons.org/ns#"
   xmlns:rdf="http://www.w3.org/1999/02/22-rdf-syntax-ns#"
   xmlns:svg="http://www.w3.org/2000/svg"
   xmlns="http://www.w3.org/2000/svg"
   xmlns:sodipodi="http://sodipodi.sourceforge.net/DTD/sodipodi-0.dtd"
   xmlns:inkscape="http://www.inkscape.org/namespaces/inkscape"
   width="60"
   height="60"
   version="1.1"
   id="svg2060"
   sodipodi:docname="bml-logo-1.svg"
   inkscape:version="1.0.2 (e86c8708, 2021-01-15)">
  <metadata
     id="metadata2066">
    <rdf:RDF>
      <cc:Work
         rdf:about="">
        <dc:format>image/svg+xml</dc:format>
        <dc:type
           rdf:resource="http://purl.org/dc/dcmitype/StillImage" />
        <dc:title></dc:title>
      </cc:Work>
    </rdf:RDF>
  </metadata>
  <defs
     id="defs2064" />
  <sodipodi:namedview
     pagecolor="#ffffff"
     bordercolor="#666666"
     borderopacity="1"
     objecttolerance="10"
     gridtolerance="10"
     guidetolerance="10"
     inkscape:pageopacity="0"
     inkscape:pageshadow="2"
     inkscape:window-width="1440"
     inkscape:window-height="872"
     id="namedview2062"
     showgrid="false"
     inkscape:zoom="10.483333"
     inkscape:cx="29.618442"
     inkscape:cy="31.144674"
     inkscape:window-x="0"
     inkscape:window-y="28"
     inkscape:window-maximized="0"
     inkscape:current-layer="svg2060" />
  <g
     fill="none"
     fill-rule="evenodd"
     id="g2058"
     transform="matrix(1,0,0,-1,0,59.776)">
    <path
       fill="#ffffff"
       d="M 0,59.776 H 59.785 V 0 H 0 Z"
       id="path2052" />
    <path
       fill="#e21b23"
       d="M 3.297,56.421 H 56.488 V 3.356 H 3.298 Z"
       id="path2054" />
    <path
       d="m 37.421,6.708 v 34.059 h -3.7 V 20.853 L 22.763,40.767 H 18.65 L 37.42,6.707 Z m -18.904,44.365 0.108,0.055 c 0.552,0.283 1.106,0.564 1.623,0.564 0.515,0 1.068,-0.281 1.621,-0.564 0.615,-0.313 1.23,-0.627 1.88,-0.627 0.652,0 1.267,0.314 1.88,0.627 0.554,0.283 1.107,0.564 1.623,0.564 0.516,0 1.068,-0.281 1.621,-0.564 0.615,-0.313 1.23,-0.627 1.88,-0.627 0.652,0 1.267,0.314 1.88,0.627 0.554,0.283 1.107,0.564 1.623,0.564 0.516,0 1.07,-0.281 1.623,-0.564 0.613,-0.313 1.228,-0.627 1.878,-0.627 0.652,0 1.267,0.314 1.88,0.627 0.554,0.283 1.107,0.564 1.623,0.564 0.516,0 1.07,-0.281 1.623,-0.564 l 0.314,-0.159 v 1.444 l -0.057,0.03 c -0.613,0.313 -1.228,0.626 -1.88,0.626 -0.65,0 -1.265,-0.313 -1.879,-0.626 -0.553,-0.283 -1.108,-0.564 -1.624,-0.564 -0.514,0 -1.069,0.28 -1.62,0.564 -0.616,0.313 -1.23,0.626 -1.88,0.626 -0.653,0 -1.268,-0.313 -1.88,-0.626 -0.554,-0.283 -1.108,-0.564 -1.624,-0.564 -0.516,0 -1.068,0.28 -1.62,0.564 -0.616,0.313 -1.23,0.626 -1.88,0.626 -0.653,0 -1.268,-0.313 -1.88,-0.626 -0.554,-0.283 -1.108,-0.564 -1.624,-0.564 -0.516,0 -1.069,0.28 -1.622,0.564 -0.614,0.313 -1.228,0.626 -1.879,0.626 -0.6,0 -1.167,-0.265 -1.73,-0.55 v -1.446 z m 0,-2.816 0.108,0.055 c 0.552,0.283 1.106,0.564 1.623,0.564 0.515,0 1.068,-0.281 1.621,-0.564 0.615,-0.313 1.23,-0.627 1.88,-0.627 0.652,0 1.267,0.314 1.88,0.627 0.554,0.283 1.107,0.564 1.623,0.564 0.516,0 1.068,-0.281 1.621,-0.564 0.615,-0.313 1.23,-0.627 1.88,-0.627 0.652,0 1.267,0.314 1.88,0.627 0.554,0.283 1.107,0.564 1.623,0.564 0.516,0 1.07,-0.281 1.623,-0.564 0.613,-0.313 1.228,-0.627 1.878,-0.627 0.652,0 1.267,0.314 1.88,0.627 0.554,0.283 1.107,0.564 1.623,0.564 0.516,0 1.07,-0.281 1.623,-0.564 l 0.314,-0.159 v 1.444 l -0.057,0.028 c -0.613,0.315 -1.228,0.627 -1.88,0.627 -0.65,0 -1.265,-0.312 -1.879,-0.627 -0.553,-0.281 -1.108,-0.562 -1.624,-0.562 -0.514,0 -1.069,0.28 -1.62,0.562 -0.616,0.315 -1.23,0.627 -1.88,0.627 -0.653,0 -1.268,-0.312 -1.88,-0.627 -0.554,-0.281 -1.108,-0.562 -1.624,-0.562 -0.516,0 -1.068,0.28 -1.62,0.562 -0.616,0.315 -1.23,0.627 -1.88,0.627 -0.653,0 -1.268,-0.312 -1.88,-0.627 -0.554,-0.281 -1.108,-0.562 -1.624,-0.562 -0.516,0 -1.069,0.28 -1.622,0.562 -0.614,0.315 -1.228,0.627 -1.879,0.627 -0.6,0 -1.167,-0.264 -1.73,-0.55 v -1.445 z m 12.428,-6.042 h 12.41 v 3.969 H 30.945 V 46.183 H 18.531 l -2.1,-3.968 z"
       fill="#ffffff"
       id="path2056" />
  </g>
</svg>
