
<svg width="60" height="60" xmlns="http://www.w3.org/2000/svg"><g fill="none" fill-rule="evenodd"><path fill="#FFF" d="M0 59.776h59.785V0H0z"/><path fill="#E21B23" d="M3.297 56.421h53.191V3.356H3.298z"/><path d="M37.421 6.708v34.059h-3.7V20.853L22.763 40.767H18.65l18.77-34.06zM18.517 51.073l.108.055c.552.283 1.106.564 1.623.564.515 0 1.068-.281 1.621-.564.615-.313 1.23-.627 1.88-.627.652 0 1.267.314 1.88.627.554.283 1.107.564 1.623.564s1.068-.281 1.621-.564c.615-.313 1.23-.627 1.88-.627.652 0 1.267.314 1.88.627.554.283 1.107.564 1.623.564s1.07-.281 1.623-.564c.613-.313 1.228-.627 1.878-.627.652 0 1.267.314 1.88.627.554.283 1.107.564 1.623.564s1.07-.281 1.623-.564l.314-.159v1.444l-.057.03c-.613.313-1.228.626-1.88.626-.65 0-1.265-.313-1.879-.626-.553-.283-1.108-.564-1.624-.564-.514 0-1.069.28-1.62.564-.616.313-1.23.626-1.88.626-.653 0-1.268-.313-1.88-.626-.554-.283-1.108-.564-1.624-.564s-1.068.28-1.62.564c-.616.313-1.23.626-1.88.626-.653 0-1.268-.313-1.88-.626-.554-.283-1.108-.564-1.624-.564s-1.069.28-1.622.564c-.614.313-1.228.626-1.879.626-.6 0-1.167-.265-1.73-.55v-1.446zm0-2.816l.108.055c.552.283 1.106.564 1.623.564.515 0 1.068-.281 1.621-.564.615-.313 1.23-.627 1.88-.627.652 0 1.267.314 1.88.627.554.283 1.107.564 1.623.564s1.068-.281 1.621-.564c.615-.313 1.23-.627 1.88-.627.652 0 1.267.314 1.88.627.554.283 1.107.564 1.623.564s1.07-.281 1.623-.564c.613-.313 1.228-.627 1.878-.627.652 0 1.267.314 1.88.627.554.283 1.107.564 1.623.564s1.07-.281 1.623-.564l.314-.159v1.444l-.057.028c-.613.315-1.228.627-1.88.627-.65 0-1.265-.312-1.879-.627-.553-.281-1.108-.562-1.624-.562-.514 0-1.069.28-1.62.562-.616.315-1.23.627-1.88.627-.653 0-1.268-.312-1.88-.627-.554-.281-1.108-.562-1.624-.562s-1.068.28-1.62.562c-.616.315-1.23.627-1.88.627-.653 0-1.268-.312-1.88-.627-.554-.281-1.108-.562-1.624-.562s-1.069.28-1.622.562c-.614.315-1.228.627-1.879.627-.6 0-1.167-.264-1.73-.55v-1.445zm12.428-6.042h12.41v3.969h-12.41v-.001H18.531l-2.1-3.968h14.514z" fill="#FFF"/></g></svg>
